<?xml version="1.0" standalone="no"?>
<!DOCTYPE svg PUBLIC "-//W3C//DTD SVG 20010904//EN"
 "http://www.w3.org/TR/2001/REC-SVG-20010904/DTD/svg10.dtd">
<svg version="1.0" xmlns="http://www.w3.org/2000/svg"
 width="921.000000pt" height="561.000000pt" viewBox="0 0 921.000000 561.000000"
 preserveAspectRatio="xMidYMid meet">
<metadata>
Created by potrace 1.16, written by Peter Selinger 2001-2019
</metadata>
<g transform="translate(0.000000,561.000000) scale(0.100000,-0.100000)"
fill="#DDDDDD" stroke="none">
<path d="M1178 5083 c-40 -25 -60 -100 -60 -227 0 -100 -1 -108 -29 -148 -18
-28 -29 -56 -29 -80 0 -54 68 -307 90 -333 5 -6 23 -51 41 -101 17 -49 48
-125 69 -169 20 -44 52 -122 70 -173 40 -113 38 -159 -10 -235 -40 -63 -149
-248 -192 -326 -82 -147 -330 -655 -384 -786 -14 -33 -31 -73 -39 -90 -7 -16
-26 -66 -41 -111 -32 -92 -28 -119 14 -111 31 6 162 -14 242 -38 30 -9 82 -22
115 -29 33 -8 84 -23 114 -35 64 -24 71 -21 96 47 10 26 26 58 35 72 32 47
244 485 280 580 7 19 21 44 30 55 10 11 28 40 40 65 26 53 48 80 65 80 12 0
61 -99 145 -295 91 -211 184 -394 219 -430 10 -11 33 -47 51 -79 17 -33 56
-88 86 -124 30 -35 65 -85 78 -110 27 -52 81 -135 126 -192 17 -21 30 -42 30
-46 0 -5 17 -27 38 -49 62 -67 232 -281 232 -293 0 -6 22 -39 49 -74 28 -35
63 -80 78 -101 15 -21 53 -68 84 -105 31 -37 59 -77 63 -90 4 -12 23 -39 42
-60 19 -20 34 -40 34 -44 0 -4 15 -22 33 -40 17 -19 43 -48 56 -66 25 -34 48
-41 57 -18 8 22 -31 123 -96 246 -33 63 -63 124 -66 135 -4 11 -21 45 -39 75
-18 30 -47 92 -64 137 -18 44 -39 87 -47 94 -18 14 -69 124 -84 178 -5 20 -25
61 -44 91 -20 30 -45 75 -57 100 -11 25 -50 106 -86 180 -35 74 -73 154 -84
178 -10 23 -28 61 -38 85 -11 23 -26 58 -34 77 -9 19 -29 65 -46 101 -17 36
-31 69 -31 73 0 4 -13 37 -30 73 -16 35 -33 76 -36 91 -4 15 -15 37 -25 50
-10 13 -21 37 -25 54 -3 18 -22 62 -40 99 -19 37 -34 73 -34 80 0 19 -99 255
-163 389 -15 30 -33 79 -41 109 -15 59 -11 73 47 155 29 41 47 71 183 301 96
163 129 215 137 215 4 0 7 5 7 12 0 6 12 27 28 47 15 20 38 52 52 73 95 141
132 188 182 238 32 31 64 73 73 93 16 38 20 88 8 85 -13 -3 -367 29 -443 40
-25 3 -73 6 -107 5 -66 -2 -91 -14 -166 -79 -41 -37 -229 -285 -273 -362 -30
-52 -55 -40 -76 36 -28 103 -173 425 -272 602 -20 36 -48 89 -63 118 -24 49
-28 52 -62 52 -20 0 -48 -8 -63 -17z"/>
<path d="M3784 4648 c3 -18 17 -48 30 -68 13 -19 27 -45 30 -57 10 -33 32 -45
89 -48 169 -9 401 -70 471 -123 20 -15 47 -35 61 -45 30 -21 32 -57 7 -103 -9
-18 -71 -80 -137 -139 -66 -59 -134 -119 -151 -135 -17 -15 -42 -33 -55 -40
-13 -7 -30 -21 -36 -31 -7 -9 -50 -46 -95 -82 -100 -79 -153 -133 -167 -170
-18 -46 -13 -105 13 -161 30 -66 95 -168 113 -179 7 -4 20 -21 28 -37 11 -22
24 -30 57 -35 84 -14 244 -81 331 -139 16 -11 41 -26 56 -35 118 -67 135 -89
94 -127 -48 -44 -57 -50 -93 -64 -19 -7 -57 -23 -85 -36 -52 -23 -225 -78
-285 -89 -19 -4 -39 -11 -45 -15 -9 -7 -67 -18 -200 -39 -31 -5 -41 -11 -43
-28 -2 -14 4 -26 18 -33 12 -6 30 -29 39 -51 10 -21 29 -49 43 -62 14 -13 27
-28 29 -33 2 -5 37 -31 77 -56 l74 -47 71 6 c40 3 105 17 145 29 40 13 80 24
90 24 9 0 29 6 43 14 15 7 55 24 90 36 117 40 299 135 369 192 19 16 47 39 62
51 49 39 178 167 178 176 0 5 7 14 16 21 8 8 22 30 30 49 21 50 3 114 -45 158
-20 18 -39 33 -43 33 -8 0 -56 32 -109 73 -20 15 -39 27 -42 27 -4 0 -44 22
-89 49 -46 26 -94 52 -108 56 -14 4 -34 15 -45 25 -11 9 -50 32 -87 50 -60 29
-68 36 -68 61 0 23 8 32 38 48 20 11 55 38 77 61 22 23 64 58 93 77 28 19 52
39 52 44 0 5 19 21 42 35 23 15 66 51 95 80 29 30 55 54 58 54 3 0 23 17 43
38 21 20 57 55 82 76 24 22 66 65 92 97 42 50 49 64 54 116 l7 60 -72 61 c-39
34 -77 62 -83 62 -7 0 -37 19 -67 43 -55 42 -94 62 -181 92 -176 61 -228 76
-284 84 -35 5 -73 14 -84 20 -10 5 -50 13 -88 16 -38 4 -82 11 -99 16 -16 6
-100 12 -185 15 -85 2 -193 6 -239 9 l-84 5 7 -32z"/>
<path d="M5410 4617 c0 -29 23 -78 41 -87 10 -6 23 -28 29 -49 13 -48 35 -58
155 -66 233 -16 490 -117 511 -200 11 -44 -63 -127 -245 -275 -31 -25 -64 -55
-74 -67 -10 -13 -25 -23 -33 -23 -8 0 -31 -17 -52 -38 -20 -21 -71 -63 -112
-94 -112 -84 -155 -134 -171 -195 l-12 -52 47 -96 c42 -84 69 -123 151 -217 8
-10 28 -18 45 -18 39 0 144 -34 190 -61 8 -5 26 -14 40 -20 26 -12 80 -39 121
-62 51 -28 169 -108 169 -116 0 -13 -25 -42 -50 -56 -51 -30 -167 -82 -230
-104 -36 -13 -74 -27 -85 -32 -11 -5 -40 -13 -65 -18 -25 -5 -90 -21 -145 -34
-55 -14 -128 -28 -162 -32 -74 -8 -91 -31 -51 -69 27 -27 99 -113 111 -132 4
-8 40 -35 79 -60 l71 -47 89 2 c63 2 102 8 131 21 23 10 87 31 142 46 176 47
386 145 462 215 24 21 47 39 52 39 9 0 105 83 138 120 121 134 131 154 117
231 -9 46 -15 52 -108 113 -45 30 -88 61 -95 70 -7 9 -17 16 -21 16 -5 0 -44
21 -87 46 -43 26 -100 58 -128 71 -227 108 -249 132 -173 179 24 14 63 45 88
69 25 23 62 52 82 64 21 12 46 33 55 45 10 12 32 31 48 42 48 30 53 35 139
118 44 43 92 84 106 91 31 16 150 139 150 155 0 6 10 24 21 40 14 19 22 43 22
71 0 36 -6 47 -35 73 -66 60 -103 88 -136 102 -19 7 -48 25 -64 39 -29 25
-166 95 -185 95 -4 0 -49 15 -99 34 -49 18 -119 37 -154 41 -36 4 -82 14 -104
21 -21 8 -61 14 -88 14 -27 0 -57 4 -67 9 -18 10 -217 26 -438 36 -108 4 -133
3 -133 -8z"/>
<path d="M7365 4573 c-11 -2 -31 -8 -45 -13 -14 -5 -46 -11 -71 -15 -55 -7
-55 -7 -104 -170 -20 -66 -50 -158 -67 -205 -39 -111 -60 -198 -56 -235 3 -26
8 -30 35 -33 19 -2 36 3 45 13 35 42 55 55 121 77 58 18 93 23 178 22 98 0
192 -16 214 -35 5 -5 16 -9 24 -9 29 0 201 -90 201 -106 0 -37 -32 -83 -96
-139 -144 -126 -361 -340 -392 -388 -8 -12 -27 -35 -42 -52 -75 -82 -186 -275
-229 -398 -19 -57 -19 -58 -1 -113 25 -72 60 -135 87 -157 12 -10 24 -25 28
-35 3 -9 22 -24 43 -33 198 -85 305 -104 577 -103 171 1 210 4 270 21 39 11
99 26 135 33 71 13 120 41 120 69 0 10 -9 30 -20 44 l-20 25 -238 4 c-186 4
-252 8 -307 22 -113 30 -177 55 -235 94 -46 31 -56 42 -58 71 -3 26 2 40 22
58 14 13 26 28 26 32 0 11 84 101 94 101 4 0 28 18 54 39 26 21 56 42 67 45
11 3 43 28 72 54 55 50 108 91 158 123 17 10 57 39 90 64 33 25 67 48 75 52 8
4 21 13 28 20 7 7 39 32 70 57 66 51 161 151 173 183 5 13 16 89 25 170 14
121 15 163 5 237 -19 155 -39 198 -120 252 -20 13 -54 36 -76 51 -73 49 -179
100 -255 122 -41 12 -88 26 -105 31 -16 5 -66 14 -110 20 -44 6 -98 15 -120
20 -46 10 -240 20 -270 13z"/>
<path d="M2705 3500 c-130 -5 -144 -8 -187 -34 -27 -15 -48 -31 -48 -34 0 -3
19 -44 42 -89 52 -104 112 -171 175 -195 63 -24 237 -34 318 -19 153 30 168
31 231 15 144 -36 181 -21 151 63 -12 34 -17 79 -17 156 0 106 0 108 -25 117
-49 18 -415 30 -640 20z"/>
</g>
</svg>
